<?xml version="1.0" encoding="UTF-8"?>
<svg id="Layer_1" xmlns="http://www.w3.org/2000/svg" version="1.1" viewBox="0 0 150 250">
  <!-- Generator: Adobe Illustrator 29.5.1, SVG Export Plug-In . SVG Version: 2.1.0 Build 141)  -->
  <defs>
    <style>
      .st0 {
        fill: #b58457;
      }
    </style>
  </defs>
  <path class="st0" d="M12.8,146.6c.6-.5,1.3-.8,2-.8s.2,0,.3,0h0c1.2.2,2.3.4,3.4.6.3,0,.5.1.8.2.3,0,.7.2,1,.3.5.2,1,.4,1.5.6.5.2,1,.5,1.5.8,0,0,0,0,.1,0,.2.1.4.2.6.2s.3,0,.4,0c.3-.1.6-.3.7-.7l1-2.4c-.2,0-1.2,0-3.1,0-.9,0-1.8,0-2.8,0-.3,0-.7,0-1,0-.8,0-1.7,0-2.6,0-2.4,0-4.5,0-6.4,0h-2.8s0,19.5,0,19.5h4.2v-9.8c0-.2,0-.4.2-.5.2-.1.3-.2.5-.2h0c.6,0,1.1.2,1.7.4.6.2,1.1.5,1.7.8.3.2.6.3.9.5.1,0,.2,0,.3,0s.2,0,.3,0c.2-.1.3-.3.3-.5v-2.2c0-.2,0-.3-.2-.4-.1,0-.2-.1-.3-.1s-.1,0-.2,0c-.3.2-.6.3-.9.4-.6.2-1.2.4-1.8.5-.6,0-1.2.2-1.8.2h0c-.2,0-.4,0-.5-.2-.1-.1-.2-.3-.2-.5v-4.8c0-.9.3-1.6.9-2.1Z"/>
  <rect class="st0" x="27.6" y="145.5" width="4.2" height="19.5"/>
  <path class="st0" d="M48.5,161.9c-1.1.8-2.4,1.3-3.7,1.4-.2,0-.5,0-.7,0-1.1,0-2.1-.2-3-.7-1.1-.6-2-1.4-2.6-2.3-.3-.4-.5-.9-.7-1.3,0-.2-.1-.4-.1-.6s0-.4.1-.6c.2-.4.5-.7.9-.8l9.2-3.4c.3-.1.4-.3.4-.4,0-.2,0-.2,0-.3,0-.2-.1-.4-.3-.6-.1,0-.3-.2-.4-.2-.4-.2-.9-.4-1.3-.6-.8-.3-1.6-.5-2.3-.5-.4,0-.7,0-1.1,0-.4,0-.7,0-1.1,0-.7,0-1.4.2-2.1.3-.7.1-1.5.4-2.2.7-.6.3-1.2.6-1.8,1.1-.1,0-.2.2-.3.3-.2.2-.5.4-.7.7-.4.4-.7.9-.9,1.5-.2.4-.3.9-.4,1.3,0,.4-.1.8-.1,1.2v.2c0,1,.3,2,.8,2.8.2.3.4.6.6.9.3.4.6.7,1,1,0,0,.1.1.2.1,1.5,1,3,1.6,4.6,1.8.5,0,1,.1,1.5.1,1,0,2.1-.2,3-.5,1.5-.5,2.7-1.3,3.6-2.4l-.2-.2ZM37.7,155h0c.2-.6.4-1.2.8-1.7.4-.5.9-1,1.5-1.4.3-.2.6-.3.9-.4.3-.1.7-.2,1-.2.2,0,.5,0,.7,0s.2,0,.3,0c.3,0,.7.1,1,.3.6.3,1.1.8,1.4,1.4.1.3.2.5.2.8h0c0,.4-.2.6-.5.7l-5.6,2.1c-.2,0-.3,0-.5,0-.3,0-.6-.1-.8-.3-.3-.2-.4-.5-.4-.9s0-.2,0-.4Z"/>
  <path class="st0" d="M66.6,165v-13.8h-4.2v10.6c0,.6-.2,1.2-.7,1.6h0c-.4.4-.9.7-1.5.9-.3,0-.6.2-.8.2-.3,0-.6,0-.9,0h-.2c-.2,0-.5,0-.7,0-.3,0-.6,0-.9-.2-.6-.2-1-.5-1.4-.9-.4-.4-.7-.8-.8-1.3-.1-.4-.2-.9-.2-1.3h0c0-.1,0-.2,0-.3,0-.1,0-.2,0-.4v-9.2h-4.2c0,1.8,0,3.6,0,5.5v2.8c0,.3,0,.7,0,1,0,.5.2,1,.5,1.5.5.9,1.2,1.6,2.1,2.1.7.4,1.4.6,2.1.8.7.1,1.3.2,1.9.2h.5c.5,0,.9,0,1.4,0,.6,0,1.2-.2,1.8-.4.3-.1.6-.3.8-.4.2,0,.3-.1.5-.1s.3,0,.4.1c.3.1.4.4.4.8v.2h4.2Z"/>
  <path class="st0" d="M71.6,152.2c.2-.3.5-.5.9-.6,0,0,.2,0,.3,0,.3,0,.6,0,.8.3.3.2.6.5.7.9,0,0,0,.2,0,.2,0,.2.1.3.2.3.1,0,.2,0,.2,0,.1,0,.2,0,.3-.1l2-2c-.6,0-1.1,0-1.5,0h-.5c-.5,0-1,0-1.5,0-.5,0-.9,0-1.3.1-.4,0-.8.2-1.2.5-.4.2-.8.5-1.1.9-.2.2-.3.3-.5.5h0c-.2.3-.3.5-.5.7-.2.3-.5.7-.7,1.1-.2.4-.4.8-.4,1.2,0,.2,0,.3,0,.5s0,.3,0,.5c0,.2,0,.4,0,.5v7.3h4.2v-1.9c0-.6,0-1.2,0-1.9,0-.5,0-.9,0-1.4,0-.4,0-.7,0-1.1,0-.7,0-1.5,0-2.2,0,0,0-.2,0-.3,0-.4-.2-.8-.4-1.2-.1-.2-.2-.5-.3-.7-.1-.4-.2-.8-.2-1.1h0c0-.4,0-.8.3-1.1Z"/>
  <path class="st0" d="M102.6,165v-19.5h-4.2v5.8c0,.4-.1.6-.3.7-.2.1-.4.2-.6.2s-.3,0-.4,0c-.4-.2-.8-.3-1.2-.5-.7-.2-1.4-.3-2.1-.3-.2,0-.3,0-.5,0-.6,0-1.1,0-1.7.1-.7.1-1.5.4-2.2.7-.7.3-1.4.8-2,1.4-.6.6-1.1,1.3-1.4,2.1-.3.8-.5,1.6-.6,2.5v.2c0,.8.1,1.6.4,2.3.3.8.7,1.5,1.3,2.2.6.6,1.2,1.1,1.9,1.5.7.4,1.4.6,2.2.8.6.1,1.2.2,1.8.2s.3,0,.4,0h.5s.2,0,.2,0c.1,0,.2,0,.3,0,.4,0,.7-.1,1-.2.6-.1,1.1-.4,1.6-.6.1,0,.3,0,.4,0s.3,0,.4.1c.2.2.4.4.4.7h0s4.2,0,4.2,0ZM98.4,161.8c0,1.3-.7,2.1-1.8,2.6-.3.1-.7.2-1,.3-.3,0-.7,0-1,0-1,0-1.9-.3-2.8-.8-.5-.4-1-.8-1.4-1.2-.4-.5-.7-1-.9-1.5-.4-1-.6-2-.6-3v-.2c0-1,.2-2,.7-3,0,0,0-.1,0-.2,0,0,0-.2.1-.2l.2-.4v-.2c.2-.2.4-.4.5-.6.4-.5.9-.9,1.5-1.2.6-.3,1.2-.5,1.9-.6.2,0,.5,0,.7,0,.4,0,.9,0,1.3.2.4,0,.9.2,1.3.5.8.4,1.3,1.1,1.3,2.1v7.4Z"/>
  <path class="st0" d="M119.3,161.9c-1.1.8-2.4,1.3-3.7,1.4-.2,0-.5,0-.7,0-1.1,0-2.1-.2-3-.7-1.1-.6-2-1.4-2.6-2.3-.3-.4-.5-.9-.7-1.3,0-.2-.1-.4-.1-.6s0-.4.1-.6c.2-.4.5-.7.9-.8l9.2-3.4c.3-.1.4-.3.4-.4s0-.2,0-.3c0-.2-.1-.4-.3-.6-.1,0-.3-.2-.4-.2-.5-.2-.9-.4-1.3-.6-.8-.3-1.6-.5-2.3-.5-.4,0-.7,0-1.1,0-.4,0-.7,0-1.1,0-.7,0-1.4.2-2.1.3-.7.1-1.5.4-2.2.7-.7.3-1.5.8-2.1,1.3-.7.6-1.2,1.3-1.6,2.2-.2.4-.3.9-.4,1.3,0,.4-.1.8-.1,1.2v.2c0,1,.3,2,.8,2.8.5.8,1.1,1.5,1.8,2,1.5,1,3,1.6,4.6,1.8.5,0,1,.1,1.5.1,1,0,2.1-.2,3.1-.5,1.5-.5,2.7-1.3,3.6-2.4l-.2-.2ZM108.5,155h0c.2-.6.4-1.2.8-1.7.4-.5.9-1,1.5-1.4.3-.2.6-.3.9-.4.3-.1.7-.2,1-.2.2,0,.5,0,.7,0s.2,0,.3,0c.3,0,.7.1,1,.3.6.3,1.1.8,1.4,1.4.1.3.2.5.2.8h0c0,.4-.2.6-.5.7l-5.6,2.1c-.2,0-.3,0-.5,0-.3,0-.6-.1-.8-.3-.3-.2-.4-.5-.4-.9s0-.2,0-.4Z"/>
  <path class="st0" d="M83.3,194.4c2.2,0,4.2,0,6,0s2.9,0,3.3,0l-1.5-3.3c-.1-.3-.3-.5-.5-.5-.2,0-.3,0-.4,0-.2,0-.5,0-.7.3-.4.4-.9.8-1.4,1.1-.9.6-1.8,1.1-2.7,1.5-1,.4-2,.6-3,.8h0s0,0,0,0c0,0-.2,0-.2,0-.5,0-1-.2-1.4-.5-.4-.4-.7-.9-.7-1.6v-21.7s-5.2,0-5.2,0v24.1h2.5c1.7,0,3.6,0,5.9,0Z"/>
  <polygon class="st0" points="94.4 194.4 99.5 194.4 99.5 177.4 94.4 177.4 94.4 194.4"/>
  <path class="st0" d="M99.3,173.9v-2.8h-3.4c-.3,0-.6.1-.9.4-.2.2-.4.5-.4.9v2.8h3.4c.3,0,.6-.1.9-.4.2-.2.4-.5.4-.9Z"/>
  <path class="st0" d="M106.8,193.6c0,0,0-.1.1-.2.4-.6.9-1.1,1.6-1.7,1.2-1.1,2.5-2.2,3.9-3.3l.3-.2c.1,0,.2-.2.4-.3.4-.3.8-.6,1.2-1,.3-.3.7-.5,1-.8.7-.6,1.4-1.2,2.1-1.8.8-.7,1.5-1.6,2.2-2.6.4-.5.7-1.1.9-1.8,0,0,0,0,0-.1,0-.1,0-.3.1-.4,0-.2,0-.4.1-.6h0c0-.2,0-.2,0-.3v-.3s0-.6,0-.6h-1.1c-.7,0-1.6,0-2.6,0-.7,0-1.3,0-2,0h-2.5c-1.2,0-2.5,0-3.7,0h-3.8s-.6,0-.6,0c-.5,0-.9,0-1.4,0-.7,0-1.4,0-2.1,0l1,2.9c.2.5.4.7.7.8.3,0,.5.1.7.1.3,0,.6,0,.8-.3.5-.3.9-.7,1.4-.9,1.1-.6,2.2-1.1,3.3-1.5,1.2-.4,2.3-.7,3.6-.8.5,0,1-.1,1.5-.1.1,0,.2,0,.4,0,.3,0,.5,0,.6.3,0,0,0,0,0,.1,0,.1,0,.2,0,.3s0,.2,0,.3c0,0,0,0,0,0h0c-.3.4-.6.8-1,1.2-.2.2-.4.4-.6.6-1.2,1.2-2.6,2.3-4.2,3.5,0,0,0,0,0,0-.2.1-.4.3-.6.4-1.4,1-2.7,2.2-4.1,3.4-.8.7-1.5,1.6-2.3,2.6,0,0,0,.1-.1.2-.1.2-.2.4-.4.6,0,0,0,.1-.1.2-.1.2-.2.5-.3.7,0,.2-.1.3-.2.5,0,.2-.1.4-.1.6v.3c0,0-.1.3-.1.3,0,.2,0,.4,0,.6h2.9s13.3,0,13.3,0c2,0,3.1,0,3.4,0l-1.1-2.8c-.2-.5-.5-.8-.8-.9-.3,0-.5-.1-.7-.1-.3,0-.6,0-.9.3-.4.3-.9.6-1.4.9-.2.1-.5.3-.7.4-.3.2-.7.3-1,.5-.5.2-1.1.4-1.6.6-1.2.4-2.3.7-3.6.8-.7,0-1.4.1-2.1.2-.2,0-.3,0-.3-.2,0,0-.1-.2-.1-.3s0-.1,0-.2c0,0,0-.2.1-.2Z"/>
  <path class="st0" d="M141.8,184.1c0-.4-.1-.8-.2-1.2-.2-.9-.7-1.8-1.4-2.7-.6-.9-1.4-1.6-2.4-2.1-.9-.4-1.7-.7-2.6-.7,0,0-.2,0-.4,0s-.5,0-1,0h-3.5c-1.6,0-2.8,0-3.8,0h-2.2c-.8,0-1.4,0-1.6,0l1,2.2c.2.3.4.5.6.6.2,0,.3,0,.4,0,.3,0,.5,0,.7-.3.8-.7,1.7-1.2,2.7-1.6.7-.2,1.4-.4,2.2-.5.3,0,.7,0,1,0,.1,0,.3,0,.4,0,.3,0,.7,0,1,0,.4,0,.8,0,1.2.1.4,0,.8.1,1.1.2.7.2,1.3.6,1.7,1.2.3.5.5,1.1.5,1.7v.2c0,.7-.3,1.3-.7,1.9,0,0,0,0,0,0h0c-.1,0-.2,0-.3,0-.1,0-.2,0-.3,0-.1,0-.2,0-.2,0-.4,0-.8,0-1.2,0-.4,0-.8,0-1.3,0s-1.2,0-1.8,0c-.3,0-.7,0-1,0-.2,0-.5,0-.7,0-1.7.1-3.4.8-5,2.1-.8.7-1.4,1.6-1.8,2.8-.1.5-.2,1-.2,1.5v.3c0,.3,0,.6.1.9,0,.1,0,.3.1.4,0,0,0,0,0,0,0,0,0,0,0,.2v.3c.4.8.8,1.4,1.4,1.8.5.5,1.1.8,1.6.9.7.2,1.4.3,2.1.3s.6,0,.9,0c.5,0,.9-.2,1.4-.3.3,0,.7-.2,1-.3,0,0,.1,0,.1,0,.8-.3,1.5-.7,2.2-1.1.7-.4,1.3-.8,2-1.2,0,0,0,0,0,0,.1,0,.2-.1.3-.1s.2,0,.3,0c.2.1.3.3.3.5v2.3h5.2v-5.8c0-.6,0-1.1,0-1.7,0-.5,0-1,0-1.4s0-1,0-1.4ZM136.6,189.4c0,.9-.4,1.5-1.1,1.9-.7.3-1.4.5-2.1.6-.2,0-.5,0-.7,0-.4,0-.8,0-1.3-.1-.3,0-.7-.1-1-.2-.7-.2-1.3-.5-1.9-.9-.3-.2-.5-.4-.6-.6,0-.2-.1-.5-.1-.7,0-.6.2-1.1.6-1.7.5-.9,1.1-1.5,1.6-2,.1-.1.2-.2.4-.3.3-.3.6-.5,1-.7.9-.6,1.9-1,3.1-1.2h0c.1,0,.2,0,.3,0,.5,0,.9.1,1.2.5.4.4.7.9.7,1.5v4.1Z"/>
  <path class="st0" d="M19.4,139.5h1v-1h0v-38.5c0-30.3,24.7-55,55-55s55,24.7,55,55v71.1h1v-71.1c0-30.9-25.1-56-56-56s-56,25.1-56,56v39.5h0Z"/>
  <polygon class="st0" points="130.4 204.7 20.3 204.7 20.3 170.1 19.4 170.1 19.4 205.7 131.3 205.7 131.3 200.8 130.4 200.8 130.4 204.7"/>
  <g>
    <path class="st0" d="M101.8,115.9c-7-5.9-14.2-3.5-16.5-2.4-.1-.8-.3-1.5-.5-2.3-.2-.9-.4-1.8-.7-2.7,0-.2-.1-.5-.2-.7-.4,0-.7,0-1.1-.2,0,.2.1.5.2.7.3,1,.5,2,.8,3.1.2.8.3,1.7.5,2.5,0,0,0,.1-.1.2-.8,0-2.8.4-5.1,1.7-2.6,1.4-6.1,4.2-7.7,9.8-.2.6,0,1.1.4,1.5.3.3.7.5,1.1.5s.2,0,.4,0c2.9-.7,9.4-2.9,11.6-9.2.4,4.2.4,8.7-.1,13.3-1,8.9-3.7,18.5-8,28.3-.1.2,0,.5.3.7,0,0,.1,0,.2,0,.2,0,.4-.1.5-.3,4.4-10,7.1-19.6,8.1-28.7.6-5.1.5-10.1,0-14.8,2.7,2.3,5.8,3.1,8.5,3.1s5.5-.8,7-1.4c.5-.2.9-.7,1-1.2,0-.6-.1-1.1-.6-1.5ZM73.2,126.7c-.2,0-.4,0-.6-.2-.1-.2-.2-.4-.1-.6,2.7-9.5,10.9-10.6,12.1-10.7-.1.2-.1.4,0,.6,0,0,0,0,0,0-1.1,7.7-8.3,10.2-11.4,10.9ZM101.4,117.3c0,.2-.2.4-.4.5-2.9,1.1-10.1,3.2-15.4-2.3,0-.3,0-.6-.1-.9.8-.4,2.4-1.1,4.6-1.3,4-.5,7.7.7,11.1,3.5.2.1.2.3.2.6Z"/>
    <path class="st0" d="M105.4,80c-1.8-2.6-4-4.4-7.3-4.8-2.4-.3-4.8-.2-7.1.4-2.1.5-4.1,1.5-5.9,2.8-1.4,1-2.7,2-3.6,3.5-.1.2-.3.3-.6.6.2-.8.5-1.5.6-2.2.5-3.6,1.3-7.1,1.4-10.7,0-1.7,0-3.3-.4-5-.2-1-.8-1.1-1.5-.5-.4.3-.7.7-1.3.8-1.7.3-3.1,1.1-4.5,2.1-2.8,2.1-5.1,4.4-5.8,8,0,.4-.2.5-.6.2-.7-.5-1.3-1-2-1.4-1.4-.8-2.8-1.6-3.8-2.9-.8-1-1.3-1-2.1,0-.2.3-.4.5-.5.8-2.1,4-2.2,10.4,1.5,14.2.2.2.5.5.8.9-1.3.3-2.6.3-3.8.7-.8.3-1.6.5-2.5.1-.4-.2-.9,0-1.4,0-.6.2-1,.5-.9,1.2,0,.4-.1.6-.5.8-.3.2-.6.4-.9.6-1.7,1.2-3.1,2.7-4.6,4.2-1.5,1.5-2.5,3.3-3.1,5.4-.4,1.5-.1,2,1.5,2.2,2.5.2,5,.4,7.4.2,2.1-.2,4.1-.6,6-1.5,1.7-.7,3.3-1.7,5.1-2.5-.8.8-1.3,1.7-1.7,2.5-3.1,5.5-3.9,11.3-2.5,17.4.4,1.6,1.3,3,2.2,4.3.3.4.7.5,1.2.4.4-.1.5-.5.5-.9.1-2.1.8-4.2,1.5-6.1,1.6-4.2,3.5-8.3,6.4-11.8.7-.9.8-1,1.6,0,2.1,2.4,4.7,3.9,7.7,4.6.4,0,.7.1,1.1.2.3,0,.7,0,1.1.1.7,0,1.4,0,2.2.1,2.2.1,4.3-.2,6.3-1,.9-.4,1.7-1.2,1.8-2.2,0-1.1-.7-2.1-1.3-3-.8-1.2-1.6-2.4-2.3-3.7-.7-1.3-1.2-2.6-1.9-3.9-.9-1.6-1.9-3.2-3.1-4.7-.4-.4-.2-.7.1-1.1,1.4-1.4,2.7-2.7,4.4-3.7,1.5-.9,3-1.8,4.7-2.2,2.9-.8,5.8-1.1,8.9-.8.6,0,1.2,0,1.6-.7.3-.6.3-1.2-.1-1.7ZM71.3,72c1.2-2.1,3.1-3.7,5.1-5.1,1.1-.8,2.4-1.3,3.8-1.6.4-.1.9-.2,1.2-.6.4-.5.6-.2.7.2.4,2.1.4,4.2.2,6.3-.3,3.2-.7,6.3-1.4,9.4-.3,1.5-.9,3-1.8,4.3-.5.8-.9,1.6-.9,2.5,0,1-.7,1.8-1.1,2.6-.2.4-.4.4-.7.1-.7-.5-1-1.3-1.4-2-.7-1.5-1.2-3.1-1.4-4.7,0-.6,0-1.2.2-1.8.2-.5,0-1.1-.1-1.6-.2-.4-.5-.5-.9-.5-.4,0-.5.4-.6.7,0,.6,0,1.1.5,1.4.3.3.4.6.4,1,0,2,.8,3.9,1.6,5.9-1.2-1.1-1.7-2.3-2.3-3.5-.8-1.5-1.5-3.1-2-4.8-.9-3-.5-5.9,1-8.5ZM75.1,90.5c-3.9-1.6-7.8-2.7-12-3.1,4.4-.4,8.3.8,12,3.1ZM61.1,71.7c.2-.3.4-.6.7-.8.3-.3.6-.2.8.1.8,1.4,2.2,2.1,3.5,2.9.5.3,1.1.6,1.6,1,1,.8,1.6,1.7,1.6,3.2,0,2.3.9,4.4,1.9,6.5.3.7.7,1.4,1.1,2.1-.8-.3-1.2-.8-1.8-1.2-1.6-1.2-3.4-2.4-5.1-3.5-.3-.2-.7-.5-1.1-.6-1.2-.4-1.7-1.6-2.8-2.1-.6-.3-1.1-.4-1.7.2-.2-2.8.1-5.3,1.4-7.6ZM62.2,85.3c-.9-1.2-1.8-2.5-2.2-4-.1-.4-.2-.7-.2-1.2.8.8,1.6,1.2,2.7,1.1.9,0,1.7.7,2.5,1.2,1.9,1.3,3.8,2.6,5.6,4,.9.7,2,1.3,2.7,2.3-.7,0-1.2-.5-1.8-.7-2.2-.7-4.3-1.4-6.6-1.3-1.3,0-2.2-.5-2.9-1.4ZM61.1,99.3c-4,2-8.2,2.4-12.5,1.9-.7,0-1.4,0-2-.1-.7,0-1-.5-.8-1.1.5-1.8,1.3-3.6,2.6-4.9,1.7-1.7,3.3-3.5,5.4-4.8.7-.5,1.4-.9,2.4-.8.6,0,1.3,0,1.6-.8,0-.3.4-.3.6-.3,1.5-.5,3-.4,4.5-.3,2.2.2,4.4.6,6.6,1.1.6.1,1.1.4,1.7.8-1.2-.2-2.3.7-3.5-.2-.5-.4-1.1-.4-1.7-.2-.3.1-.6.1-.7.6,0,.3.2.6.4.8.8.4,1.6.6,2.4.3,2.4-.9,4.6-.7,6.9.3.2.1.5.3.4.6-.1.4-.5.5-.8.4-.7-.1-1.4-.3-2.1-.4-3-.5-5.9-.2-8.8.8-.8.3-1.5.7-2.4.3-.5-.2-1.1-.1-1.7.2-.3.2-.7.4-.6.8,0,.5.4.6.8.7.7.1,1.3,0,1.9-.4,1.5-1,3.1-1.5,4.9-1.8,1.7-.3,3.5-.5,5.3-.2.4,0,.9.1,1.4.4-.5.2-.9.3-1.3.4-2,.5-3.7,1.8-5.3,3-1.7,1.3-3.7,2.3-5.6,3.2ZM72.3,103.1c-1.2,1.2-1.8,2.7-2.7,4-2.1,3.3-3.5,6.9-4.7,10.7-.3,1.1-.6,2.2-.6,3.3,0,.2,0,.6-.2.6-.3.1-.4-.2-.6-.4-1.2-1.4-1.9-3.1-2.2-4.9-1-5.7,0-11.1,2.9-16.1,1.3-2.3,3.1-4.1,5.3-5.6,1.2-.8,2.6-1.1,4.1-1.5-.8,1-1.5,1.9-1.9,3-.7,1.8-.3,3.4.7,5,.7,1,.7,1.1-.1,1.9ZM86.4,92.1c2,2.7,3,6,4.9,8.7.8,1.1,1.3,2.4,2.2,3.5.7.8.1,2.1-1.2,2.7-1.5.7-3.1,1-4.8,1-1.2,0-2.4,0-3.5-.2-.4,0-.7,0-1.1-.2-1.1-.2-2.3-.5-3.4-1.1-2.2-1.1-4-2.5-5.5-4.4-.6-.8-1.1-1.5-1.5-2.3-.9-1.8-.4-3.9,1.1-5.5.2-.2.4-.4.6-.6.6-.6,1.3-1.1,2.1-1.5.4-.2.9-.4,1-1,.7-2.8,2.8-3.8,5.5-2.7,1.7.7,2.6,2.1,3.5,3.4ZM104.9,81.4c-.3.4-.8.4-1.2.4-3.9-.3-7.8.1-11.4,1.8-2.6,1.2-4.9,3-6.8,5.1-.2.3-.4.6-.8.2-1.5-1.3-3.3-1.5-5.2-1.1-.3,0-.5,0-.8.1,0-1.2.5-2.2,1.2-3.1,1.5-2,3.1-3.9,5-5.5,2.1-1.7,4.4-2.8,7-3.3,3-.6,5.9-.6,8.7.4,1.8.7,2.9,2.2,4.1,3.6.3.3.5.8.2,1.3Z"/>
  </g>
  <path class="st0" d="M81.4,95.3"/>
</svg>